<svg width="96" height="96" xmlns="http://www.w3.org/2000/svg" xmlns:xlink="http://www.w3.org/1999/xlink" xml:space="preserve" overflow="hidden"><g transform="translate(-592 -312)"><path d="M648 371C647.915 371 647.836 371.018 647.753 371.025 647.67 371.032 647.59 371 647.505 371L614 371C612.343 371 611 372.343 611 374 611 375.657 612.343 377 614 377L647.505 377C647.59 377 647.669 376.982 647.752 376.975 647.835 376.968 647.914 377 648 377 649.657 377.001 650.999 378.345 650.998 380.002 650.997 381.659 649.653 383.001 647.996 383 646.906 382.999 645.901 382.407 645.373 381.452 644.593 379.99 642.776 379.437 641.314 380.217 639.852 380.996 639.299 382.814 640.079 384.276 640.095 384.305 640.111 384.335 640.128 384.364 642.538 388.711 648.016 390.281 652.363 387.871 656.71 385.461 658.281 379.983 655.87 375.636 654.284 372.775 651.271 371 648 371Z" fill="#FFFFFF"/><path d="M609 353 637 353C643.075 352.999 647.999 348.074 647.999 341.999 647.998 335.923 643.072 330.999 636.997 331 631.47 331.001 626.801 335.103 626.09 340.585 625.878 342.229 627.039 343.733 628.683 343.944 630.327 344.155 631.831 342.995 632.042 341.351 632.4 338.613 634.911 336.684 637.649 337.042 640.387 337.401 642.316 339.911 641.957 342.649 641.631 345.138 639.51 347 637 347L609 347C607.343 347 606 348.343 606 350 606 351.657 607.343 353 609 353Z" fill="#FFFFFF"/><path d="M667 335C658.709 335.007 651.993 341.733 652 350.024 652.001 351.277 652.159 352.525 652.47 353.739 652.882 355.344 654.517 356.311 656.122 355.899 657.727 355.487 658.694 353.852 658.282 352.247 657.041 347.434 659.937 342.526 664.75 341.285 669.563 340.044 674.471 342.94 675.712 347.753 676.953 352.566 674.057 357.474 669.244 358.715 668.511 358.904 667.757 359 667 359L601 359C599.343 359 598 360.343 598 362 598 363.657 599.343 365 601 365L667 365C675.284 365 682 358.284 682 350 682 341.716 675.284 335 667 335Z" fill="#FFFFFF"/></g></svg>